<?xml version="1.0" encoding="UTF-8"?>
<svg width="700pt" height="700pt" version="1.1" viewBox="0 0 700 700" xmlns="http://www.w3.org/2000/svg">
 <g>
  <path d="m175 140c9.6641 0 17.5-7.8359 17.5-17.5s-7.8359-17.5-17.5-17.5-17.5 7.8359-17.5 17.5 7.8359 17.5 17.5 17.5z"/>
  <path d="m245 122.5c0 9.6641-7.8359 17.5-17.5 17.5s-17.5-7.8359-17.5-17.5 7.8359-17.5 17.5-17.5 17.5 7.8359 17.5 17.5z"/>
  <path d="m280 140c9.6641 0 17.5-7.8359 17.5-17.5s-7.8359-17.5-17.5-17.5-17.5 7.8359-17.5 17.5 7.8359 17.5 17.5 17.5z"/>
  <path d="m105 105c0-28.996 23.504-52.5 52.5-52.5h385c28.996 0 52.5 23.504 52.5 52.5v350c0 28.996-23.504 52.5-52.5 52.5h-385c-28.996 0-52.5-23.504-52.5-52.5zm455 0v52.5h-420v-52.5c0-9.6641 7.8359-17.5 17.5-17.5h385c9.6641 0 17.5 7.8359 17.5 17.5zm0 87.5h-420v262.5c0 9.6641 7.8359 17.5 17.5 17.5h385c9.6641 0 17.5-7.8359 17.5-17.5z" fill-rule="evenodd"/>
 </g>
</svg>
